<svg width="32" height="32" viewBox="0 0 32 32" fill="none" xmlns="http://www.w3.org/2000/svg">
<path fill-rule="evenodd" clip-rule="evenodd" d="M0.0499688 4.25C0.0249688 2.275 0.0499689 0.5 0.0999689 0.325C0.199969 0.0749998 1.29997 0 4.82497 0H9.42497L9.59997 1.525C9.77497 3.375 10.275 4.1 12.325 5.575C13.175 6.2 14.15 7 14.475 7.35L15.1 8L7.59997 7.95L0.124969 7.875L0.0499688 4.25ZM12.725 4.475C11.125 3.35 10.75 2.7 10.75 1.125V0H21.375H32V16V32H26.625H21.275L20.3 30.55C18.45 27.775 17.75 25.45 17.75 21.975C17.75 20.65 17.925 18.675 18.15 17.6C19.225 12.425 17.25 7.65 12.725 4.475ZM14.275 2.75C13.575 2.275 13 1.725 13 1.55C13 1.4 12.775 1.25 12.5 1.25C12.125 1.25 12 1.425 12 1.875C12 2.35 12.425 2.8 13.85 3.85C16 5.425 17.4 7.175 18.5 9.575C18.95 10.55 19.4 11.25 19.625 11.25C20.25 11.25 20.05 10.175 19.1 8.275C18.075 6.225 16.15 4.025 14.275 2.75ZM20.375 18.05C20.6 16.85 20.75 15.525 20.7 15.125C20.55 13.7 19.5 14.375 19.5 15.9C19.5 16.275 19.325 17.55 19.1 18.725C18.4 22.375 19.025 26.175 20.75 29.2C21.55 30.575 22.1 31 22.55 30.55C22.725 30.375 22.525 29.85 21.9 28.825C21.425 28.025 20.825 26.875 20.6 26.25C19.975 24.5 19.85 20.675 20.375 18.05ZM0.0999689 12.325C0.0499689 12.5 0.0249688 14.275 0.0499688 16.25L0.124969 19.875H5.74997H11.375V16V12.125L5.79997 12.05C1.37497 12 0.199969 12.05 0.0999689 12.325ZM15.55 16.25C15.525 14.275 15.55 12.5 15.6 12.325C15.675 12.15 16.025 12 16.35 12C16.875 12 17 12.15 17.15 12.9C17.325 13.825 17.15 16.775 16.825 18.75C16.675 19.65 16.525 19.875 16.125 19.875C15.65 19.875 15.625 19.675 15.55 16.25ZM0.124969 24.325C0.0499689 24.5 0.0249688 26.275 0.0499689 28.25L0.124969 31.875H2.24997H4.37497V28V24.125L2.29997 24.05C0.749969 24 0.199969 24.075 0.124969 24.325ZM8.49997 28.05C8.49997 26 8.57497 24.25 8.67497 24.175C8.74997 24.075 10.625 24 12.8 24H16.75V24.675C16.75 25.725 18.1 29.35 18.975 30.7L19.725 31.875L14.425 31.95C11.525 31.975 8.99997 31.95 8.82497 31.9C8.57497 31.8 8.49997 30.825 8.49997 28.05Z" fill="#D13B41"/>
</svg>
