<svg width="32" height="28" viewBox="0 0 32 28" fill="none" xmlns="http://www.w3.org/2000/svg">
<path fill-rule="evenodd" clip-rule="evenodd" d="M22.5 5.09618C22.5 7.89365 22.55 10.1924 22.6 10.1924C22.65 10.1924 23.175 10.0406 23.7749 9.86708L23.775 9.86706C25.175 9.43335 29 8.8912 30.7 8.8912H32V4.4456V4.76837e-06H27.25H22.5V5.09618ZM11.25 15.1801V7.59005V7.62939e-06H16H20.75V5.42147V10.8212L19.675 11.2333C19.075 11.4718 17.425 12.2308 15.975 12.9465C14.55 13.6621 12.9 14.4645 12.325 14.7247L11.25 15.1801ZM0 17.3922V8.69613V0.000102997H4.75H9.5V7.91544V15.8308L8.825 16.0693C7.65 16.4597 3.975 17.0885 1.95 17.2404L0 17.3922ZM14.85 15.3319C21.15 12.2308 24.475 11.1032 28.55 10.6478C29.425 10.5393 30.55 10.4526 31.075 10.4309L32 10.4092V19.0835V27.7579H16H0V23.3123V18.8667H1.35C5.275 18.8667 10.375 17.5439 14.85 15.3319ZM28.7 14.9199C29.575 14.8548 29.625 14.8114 29.7 14.0307L29.775 13.2284H28.775H27.75V14.1175V14.9849L28.7 14.9199ZM28.7 20.3413C29.575 20.2763 29.625 20.2329 29.7 19.4522L29.775 18.6498H28.775H27.75V19.539V20.4064L28.7 20.3413ZM4.25 25.8278V24.9604V24.0713H3.225H2.225L2.3 24.8737C2.375 25.6544 2.425 25.6977 3.325 25.7628L4.25 25.8278ZM11.75 25.6977C12.575 25.6977 12.625 25.6544 12.7 24.8737L12.775 24.0713H11.75H10.725L10.8 24.8737C10.875 25.6544 10.925 25.6977 11.75 25.6977ZM20.25 25.6977C21.075 25.6977 21.125 25.6544 21.2 24.8737L21.275 24.0713H20.25H19.225L19.3 24.8737C19.375 25.6544 19.425 25.6977 20.25 25.6977ZM28.7 25.7628C29.575 25.6977 29.625 25.6544 29.7 24.8737L29.775 24.0713H28.775H27.75V24.9604V25.8278L28.7 25.7628Z" fill="#D13B41"/>
</svg>
