<svg width="357" height="331" viewBox="0 0 357 331" fill="none" xmlns="http://www.w3.org/2000/svg">
<path d="M16.2904 0.896539C11.3217 1.99987 2.80398 7.93029 1.28295 11.4472C-0.339472 15.1709 -0.440874 77.2334 1.08015 77.2334C3.41239 77.2334 20.9549 72.2684 30.2838 68.9584C60.6029 58.3388 74.7992 43.8576 79.6664 18.8257C80.4777 14.4813 81.1875 8.48195 81.1875 5.44779V8.03471e-05L50.5642 0.0690387C31.2978 0.137997 18.5212 0.41383 16.2904 0.896539Z" fill="#D13B41"/>
<path d="M97.1073 9.10269C95.6877 29.6523 89.0966 45.0989 76.7256 56.7529C71.1485 62.1316 59.3859 69.786 50.7667 73.6477C41.742 77.7162 24.0981 83.4398 11.0173 86.5429L0.065918 89.1633V114.954V140.744L3.41217 139.227C91.226 97.3694 129.657 67.8552 139.595 34.2725C141.724 27.1698 141.116 11.3783 138.479 4.6204L136.755 0.000194862H117.185H97.7157L97.1073 9.10269Z" fill="#D13B41"/>
<path d="M154.906 4.27552C157.239 11.3093 157.746 27.5145 155.819 34.893C152.371 48.5468 144.361 61.442 131.28 74.613C108.464 97.6451 73.6837 119.229 12.9441 148.26C6.35301 151.364 0.674513 154.329 0.47171 154.743C0.268906 155.156 0.167505 172.948 0.268906 194.256L0.573111 233.079L6.0488 226.321C23.6927 204.737 43.6688 187.636 100.352 145.502C139.493 116.471 153.791 105.093 167.582 92.0595C175.795 84.2672 191.411 67.3034 195.771 61.373C205.404 48.4088 210.982 28.6868 210.982 7.72343V0.000102967H182.183H153.385L154.906 4.27552Z" fill="#D13B41"/>
<path d="M226.902 12.2056C225.482 41.9266 218.688 58.3387 199.726 78.8883C188.268 91.3008 174.68 114.747 169.001 132.055C152.777 181.429 166.466 227.356 214.632 284.591C224.975 296.934 257.018 330.172 259.046 330.724C259.654 330.862 270.2 330.931 282.368 330.862L304.575 330.655L298.39 322.587C294.942 318.105 283.889 305.072 273.749 293.624C242.72 258.663 229.132 238.665 220.209 215.15C205.709 176.74 208.548 133.365 227.611 99.7137C235.014 86.7495 242.416 77.0264 263.71 52.7531C282.166 31.6518 293.421 16.8258 301.33 3.24102L303.257 -1.78047e-05H265.333H227.51L226.902 12.2056Z" fill="#D13B41"/>
<path d="M315.628 8.82673C308.429 20.8255 296.767 36.2721 282.47 52.7532C252.455 87.5082 246.168 95.8521 238.969 110.678C223.86 141.709 223.454 183.153 237.752 217.081C246.675 237.975 259.046 255.629 288.047 288.246C299.303 300.934 311.674 315.76 315.628 321.139L322.726 331H329.926C341.891 330.931 349.902 327.69 354.566 321.001C356.797 317.76 357 316.726 357 305.348V293.073L348.584 285.35C292.204 233.562 274.155 202.875 276.183 162.397C278.414 120.884 293.016 96.4728 342.702 51.5119L357 38.5478V26.4111C357 11.723 356.29 9.86111 349.395 5.17194C343.412 1.03444 339.153 6.53267e-05 328.405 6.53267e-05H320.901L315.628 8.82673Z" fill="#D13B41"/>
<path d="M347.772 65.2346C306.705 103.782 294.131 125.78 292.407 162.742C290.785 198.738 304.981 224.804 349.293 267.214L356.493 274.04L356.797 219.77C356.899 189.911 356.899 141.089 356.797 111.299L356.493 57.0975L347.772 65.2346Z" fill="#D13B41"/>
<path d="M147.707 126.401C142.738 130.262 125.399 143.364 109.073 155.501C74.5965 181.085 58.3722 193.98 44.4802 206.668C25.7209 223.77 12.133 240.32 4.42651 255.56L0.573242 263.076V291.004C0.573242 318.45 0.573242 319.001 2.80408 321.76C5.13632 324.794 11.8288 329.138 13.4513 328.793C13.9583 328.655 16.1891 323.759 18.4199 317.967C32.0078 281.971 54.8231 246.526 82.5058 218.253C91.4291 209.082 102.786 198.6 107.451 195.29C111.101 192.601 115.664 192.325 119.112 194.669C120.836 195.842 121.647 197.635 122.661 202.393C125.906 218.322 131.483 232.665 148.315 267.903C160.686 293.9 167.278 310.726 170.117 322.863L171.942 331H205.202C231.566 331 238.36 330.793 237.752 330.104C237.346 329.69 232.58 324.794 227.206 319.277C187.051 278.316 163.323 243.423 152.676 210.185C144.057 183.015 144.564 153.915 154.095 127.366C155.616 122.953 156.935 119.298 156.833 119.298C156.833 119.298 152.676 122.47 147.707 126.401Z" fill="#D13B41"/>
<path d="M98.1214 224.942C68.9177 254.801 48.4345 285.694 34.0355 321.622C32.1089 326.518 30.4865 330.655 30.4865 330.793C30.4865 330.931 38.193 331 47.6233 331H64.6588L65.2672 323.208C66.484 307.554 72.6695 292.039 84.2293 275.902C91.1246 266.248 92.9499 264.8 97.7157 264.8C103.901 264.8 104.003 265.007 113.636 297.555C118.604 314.243 122.965 328.586 123.269 329.483C123.776 331 124.08 331 139.493 331C151.357 331 155.21 330.793 155.21 330.104C155.21 324.104 147.504 301.9 138.479 281.695C123.066 247.285 120.43 241.216 116.678 230.941C114.548 225.08 112.52 218.805 112.115 217.012C111.709 215.219 110.999 213.564 110.594 213.426C110.087 213.219 104.51 218.391 98.1214 224.942Z" fill="#D13B41"/>
<path d="M92.443 294.107C86.8659 304.175 81.1874 321.484 81.1874 328.311V331H94.2682H107.349L101.366 311.14C98.0201 300.245 95.1808 291.004 95.0794 290.659C94.8766 290.246 93.6598 291.832 92.443 294.107Z" fill="#D13B41"/>
</svg>
