<svg width="355" height="341" viewBox="0 0 355 341" fill="none" xmlns="http://www.w3.org/2000/svg">
<path d="M7.40195 0.887192C4.15183 2.25378 0.822439 6.12579 0.26754 9.16266C0.0297267 10.5293 -0.0495445 42.72 0.0297267 80.8327C0.26754 149.39 0.26754 150.073 1.93224 152.123C2.80422 153.262 4.54818 154.932 5.73725 155.767C7.87757 157.362 8.43247 157.362 82.3132 157.362C156.194 157.362 156.749 157.362 158.889 155.767C160.078 154.932 161.822 153.262 162.694 152.123C164.359 150.073 164.359 149.542 164.359 78.7829C164.359 8.02383 164.359 7.49239 162.694 5.44249C161.822 4.30367 160.078 2.63339 158.889 1.79825C156.749 0.203903 156.035 0.203903 83.2645 0.0520477C23.4147 -0.0997925 9.30446 0.0520477 7.40195 0.887192Z" fill="#D13B41"/>
<path d="M184.969 0.887192C181.719 2.25378 178.39 6.12579 177.835 9.16266C177.597 10.5293 177.518 42.72 177.597 80.8327C177.835 149.39 177.835 150.073 179.5 152.123C180.372 153.262 182.116 154.932 183.305 155.767C185.445 157.362 186 157.362 259.881 157.362C333.761 157.362 334.316 157.362 336.457 155.767C337.646 154.932 339.39 153.262 340.262 152.123C341.926 150.073 341.926 149.542 341.926 78.7829C341.926 8.02383 341.926 7.49239 340.262 5.44249C339.39 4.30367 337.646 2.63339 336.457 1.79825C334.316 0.203903 333.603 0.203903 260.832 0.0520477C200.982 -0.0997925 186.872 0.0520477 184.969 0.887192Z" fill="#D13B41"/>
<path d="M7.40195 170.952C4.15183 172.319 0.822439 176.191 0.26754 179.228C0.0297267 180.594 -0.0495445 212.785 0.0297267 250.898C0.26754 319.455 0.26754 320.138 1.93224 322.188C2.80422 323.327 4.54818 324.997 5.73725 325.832C7.87757 327.427 8.43247 327.427 82.3132 327.427C156.194 327.427 156.749 327.427 158.889 325.832C160.078 324.997 161.822 323.327 162.694 322.188C164.359 320.138 164.359 319.607 164.359 248.848C164.359 178.089 164.359 177.557 162.694 175.507C161.822 174.369 160.078 172.698 158.889 171.863C156.749 170.269 156.035 170.269 83.2645 170.117C23.4147 169.965 9.30446 170.117 7.40195 170.952Z" fill="#D13B41"/>
<path d="M184.969 170.952C179.658 173.154 176.646 178.924 177.835 184.846C178.311 187.427 187.03 196.006 257.344 263.425C343.274 345.724 337.804 340.941 345.256 339.574C349.14 338.891 353.896 334.335 354.61 330.615C355.799 324.693 354.689 322.719 345.335 313.609L336.615 305.181L341.53 299.563C356.116 283.012 358.89 262.665 349.299 243.533C346.128 237.232 345.494 236.548 315.45 207.774C285.406 179 284.693 178.392 278.113 175.355C258.137 166.169 236.892 168.826 219.532 182.796L213.745 187.503L205.263 179.531C200.665 175.128 195.83 171.104 194.641 170.724C191.628 169.585 187.902 169.737 184.969 170.952ZM260.753 195.247C263.289 195.778 266.857 197.145 268.68 198.208C270.582 199.271 283.979 211.57 298.486 225.464C329.084 254.845 329.322 255.149 329.164 266.31C329.084 274.13 327.42 278.229 321.95 283.847L318.224 287.644L275.18 246.418L232.136 205.193L235.148 202.308C239.746 197.676 247.356 194.564 254.332 194.26C255.442 194.26 258.295 194.639 260.753 195.247Z" fill="#D13B41"/>
</svg>
