<svg width="32" height="32" viewBox="0 0 32 32" fill="none" xmlns="http://www.w3.org/2000/svg">
<path fill-rule="evenodd" clip-rule="evenodd" d="M0 18.8871C0 18.2859 1.35192 16.808 9.08791 9.09285C16.7989 1.3777 18.276 0 18.8768 0C19.4276 0 20.0785 0.475934 21.831 2.17928C24.2845 4.584 24.9104 5.48577 24.635 6.33744C24.4347 7.01377 7.66088 23.947 6.65946 24.448C5.60796 25.0241 4.90697 24.6233 2.27823 21.9431C0.475675 20.0894 0 19.4632 0 18.8871ZM22.6822 2.02898C22.4319 1.75344 22.3067 1.40275 22.4068 1.27751C22.6321 0.876722 22.9075 0.926821 23.3832 1.4779C23.7337 1.85364 23.7337 1.97889 23.4583 2.22938C23.1829 2.42977 23.0077 2.40472 22.6822 2.02898ZM16.5235 18.1857C16.0478 18.3861 13.6694 20.5153 11.266 22.92C8.86258 25.3247 6.58435 27.3787 6.18378 27.529C5.25746 27.8797 4.5815 27.5791 3.27966 26.1764C2.30327 25.0993 2.20313 24.9239 2.35334 24.0472C2.45348 23.3208 2.40341 23.0202 2.02788 22.6945C1.4771 22.1936 1.30185 22.3689 1.00142 23.7216C0.700995 25.0492 1.1266 26.0762 2.57866 27.504C4.00569 28.9318 5.15732 29.3326 6.68449 28.9318C7.13513 28.8316 9.11294 27.0531 12.1673 24.0221C17.4748 18.7618 17.575 18.6867 19.1522 20.0894C20.0034 20.8159 20.0785 20.8409 20.4791 20.4401C20.8546 20.0644 20.8296 19.9642 19.9033 19.0624C18.7266 17.9102 17.7502 17.6597 16.5235 18.1857ZM19.7781 23.1955L21.4555 21.4922L23.1579 19.7888L27.464 24.0973C30.2429 26.9028 31.8202 28.6813 31.9454 29.1572C32.3209 30.7353 30.6936 32.3385 29.1163 31.9377C28.6657 31.8375 26.788 30.1592 24.0842 27.4789L19.7781 23.1955Z" fill="#D13B41"/>
</svg>
