<svg width="32" height="32" viewBox="0 0 32 32" fill="none" xmlns="http://www.w3.org/2000/svg">
<path fill-rule="evenodd" clip-rule="evenodd" d="M27.0578 0.306968C26.7157 0.464514 24.2416 3.24783 21.5571 6.47752L16.688 12.3855L18.1093 13.8034L19.5305 15.2213L25.3207 10.4687C28.4791 7.86918 31.2952 5.40096 31.5321 5.00709C32.4796 3.53666 31.9269 1.30476 30.4267 0.385742C29.5845 -0.0868964 27.9527 -0.139411 27.0578 0.306968ZM29.216 2.40758C29.9529 2.93273 29.6897 4.0093 28.7949 4.11433C27.8474 4.21936 27.4 3.43163 27.9527 2.6439C28.4264 1.9612 28.5843 1.93494 29.216 2.40758ZM13.4507 12.3067L12.6875 13.1207L15.7405 16.1666L18.8199 19.2387L19.3726 18.7398C20.7149 17.5057 20.6885 17.4532 17.6355 14.3811C16.0563 12.8056 14.6351 11.519 14.5035 11.519C14.3456 11.519 13.8718 11.8866 13.4507 12.3067ZM5.29175 15.7727C6.29188 15.2738 7.97632 14.5649 8.97645 14.2498C10.0029 13.9084 11.1083 13.6459 11.4768 13.6196C11.9769 13.6196 12.898 14.3811 15.2141 16.6917C17.8197 19.2913 18.3198 19.9214 18.3198 20.5779C18.3198 21.707 17.0038 25.3305 15.8721 27.2998C14.872 29.0591 12.6612 32 12.319 32C11.9242 32 -0.156344 19.7114 0.00157219 19.4488C0.343723 18.8711 3.52836 16.6655 5.29175 15.7727Z" fill="#D13B41"/>
</svg>
